<?xml version="1.0" encoding="UTF-8"?>
<svg width="693px" height="102px" viewBox="0 0 693 102" version="1.1" xmlns="http://www.w3.org/2000/svg" xmlns:xlink="http://www.w3.org/1999/xlink">
    <title>TypeLogo_White_HC</title>
    <g id="Page-1" stroke="none" stroke-width="1" fill="none" fill-rule="evenodd">
        <path d="M351.322196,29 C354.775527,29 357.984895,29.4435186 360.951014,30.3259186 C363.962072,31.2216878 366.612345,32.6121439 368.904107,34.4930644 C371.20561,36.3819795 373.034886,38.7195334 374.388837,41.5081911 C375.854762,44.5274753 376.636764,48.1298076 376.713494,52.3211009 L376.713494,52.3211009 L366.572439,52.3211009 C366.602506,49.5929435 366.128714,47.2472881 365.124702,45.2915676 C364.250755,43.5892024 363.080337,42.1823224 361.610274,41.0736225 C360.12009,39.9497478 358.407367,39.1293593 356.474496,38.607652 C354.494196,38.0731433 352.389995,37.8073394 350.162291,37.8073394 C348.425228,37.8073394 346.66755,37.9932949 344.88916,38.3642511 C343.150439,38.726933 341.552665,39.3301188 340.096864,40.1764504 C338.690012,40.9943252 337.555417,42.064187 336.695527,43.3885916 C335.845825,44.6973057 335.439141,46.3179509 335.439141,48.2385321 C335.439141,49.8009794 335.81551,51.1288191 336.601355,52.2103458 C337.429178,53.3496461 338.475126,54.3105669 339.736339,55.0961467 C341.048179,55.9132604 342.483332,56.5866169 344.04108,57.1177197 C345.639988,57.6628562 347.112912,58.1037744 348.460045,58.4398075 L348.460045,58.4398075 L359.238438,60.8694935 C361.619882,61.2241116 363.979554,61.8624114 366.317162,62.7854866 C368.695829,63.7247745 370.804244,64.9562431 372.644208,66.4768823 C374.506525,68.0159955 376.030028,69.9159332 377.211155,72.1796123 C378.396283,74.4509601 379,77.129146 379,80.2201835 C379,84.0323954 378.12013,87.2711601 376.391187,89.9464502 C374.67784,92.597608 372.490865,94.7542441 369.830707,96.4168103 C367.201498,98.0600341 364.238916,99.23939 360.940957,99.9500393 C357.690782,100.650392 354.484489,101 351.322196,101 C343.247951,101 336.717073,99.0728176 331.708336,95.273811 C326.444798,91.2815438 323.47676,84.8000044 322.924818,75.7522936 L322.924818,75.7522936 L333.075773,75.7522936 C333.224783,81.3605919 335.077587,85.5768071 338.718317,88.351435 C342.207081,91.0102478 346.541813,92.3211009 351.708831,92.3211009 C353.620681,92.3211009 355.594763,92.1131577 357.631241,91.6989621 C359.630001,91.292438 361.486343,90.6021466 363.199644,89.6264438 C364.876507,88.6714925 366.255785,87.4597057 367.333977,85.9872035 C368.376626,84.5632433 368.880668,82.8080469 368.880668,80.733945 C368.880668,78.9770912 368.534277,77.4994615 367.804517,76.3128462 C367.064264,75.1091676 366.068982,74.101618 364.822577,73.2864442 C363.513871,72.4305243 362.020323,71.7190763 360.343711,71.1485201 C358.614804,70.5601677 356.864844,70.0557434 355.093826,69.6352615 L355.093826,69.6352615 L344.645617,67.3213266 C341.930636,66.6237375 339.435168,65.8163185 337.158851,64.9001603 C334.830056,63.9628808 332.793731,62.8003437 331.047312,61.416881 C329.253972,59.996249 327.851318,58.2549464 326.839677,56.1927111 C325.836178,54.1470738 325.319809,51.6267113 325.319809,48.6238532 C325.319809,45.0753927 326.131583,42.0326285 327.727993,39.4870521 C329.316011,36.9548562 331.380673,34.9203375 333.921453,33.3829626 C336.414684,31.8743588 339.196638,30.7631829 342.268872,30.0532016 C345.308674,29.350715 348.326488,29 351.322196,29 Z M582.221374,27 C587.156619,27 591.445301,28.0325269 595.093762,30.0752512 C597.613143,31.4858185 599.663325,33.3389568 601.243184,35.6356757 L601.243184,35.6356757 L601.243184,28.6212897 L616.961832,28.6212897 L616.961832,62.604913 L601.22783,62.604913 C601.416594,56.3864357 599.866163,51.441607 596.503302,47.8025335 C593.354649,44.395262 589.256612,42.7072671 584.223555,42.7072671 C582.206136,42.7072671 580.08429,43.1202393 577.856356,43.9359666 C575.630329,44.7509962 573.593284,46.0222938 571.742434,47.7452491 C569.879089,49.4798371 568.338939,51.6863015 567.112766,54.35778 C565.880522,57.0424848 565.2759,60.2707299 565.2759,64.0368475 C565.2759,67.7100824 565.858115,70.8801426 567.043313,73.5420784 C568.217492,76.1792658 569.751356,78.3533812 571.654085,80.0575517 C573.556788,81.7616997 575.813262,83.0428064 578.420241,83.9064103 C581.062354,84.7816531 583.787803,85.2190379 586.59651,85.2190379 C591.43963,85.2190379 595.649907,84.4772567 599.2233,82.9757285 C603.168776,81.3178526 606.515433,79.0655319 609.259193,76.2126487 L609.259193,76.2126487 L618.310026,88.6015806 C613.558284,93.4802848 608.537653,96.7785121 603.260692,98.5178067 C598.245397,100.170855 592.814556,101 586.967285,101 C581.057038,101 575.690878,100.117187 570.867152,98.3602929 C566.008722,96.5907588 561.890608,94.097131 558.507937,90.8870936 C555.116558,87.668792 552.513598,83.7801508 550.703032,79.2184495 C548.904326,74.686628 548,69.6267727 548,64.0368475 C548,58.6966228 548.902841,53.7476286 550.702334,49.1886357 C552.506744,44.6171886 554.949298,40.7044676 558.02413,37.4466701 C561.106455,34.1809333 564.736099,31.6234406 568.913882,29.7753498 C573.09478,27.9258814 577.530447,27 582.221374,27 L582.221374,27 Z M111.967177,29 C119.234674,29 125.378856,30.9637855 130.41097,34.8607378 C135.355202,38.689632 138.378636,44.4167669 139.417651,52.0896507 L139.417651,52.0896507 L139.629327,53.733945 L129.684223,53.733945 C128.67626,48.6151649 126.700348,44.6184526 123.714472,41.7693549 C120.917497,39.1005046 116.989,37.8073394 111.967177,37.8073394 C108.348515,37.8073394 105.16868,38.5711155 102.43319,40.1181484 C99.6851595,41.6722735 97.4014564,43.7167766 95.5828584,46.2525219 C93.7436698,48.8169775 92.3561217,51.733881 91.4161654,55.0012386 C90.4691705,58.2930628 89.9956236,61.6473854 89.9956236,65.0642202 C89.9956236,68.481055 90.4691705,71.8353775 91.4161654,75.1272017 C92.3561217,78.3945594 93.7436698,81.3114629 95.5828584,83.8759185 C97.4014564,86.4116637 99.6851595,88.4561668 102.43319,90.010292 C105.16868,91.5573249 108.348515,92.3211009 111.967177,92.3211009 C114.282358,92.3211009 116.478072,91.8777608 118.553882,90.9889759 C120.637328,90.0969215 122.480521,88.8603987 124.083193,87.2790086 C125.695154,85.6884528 127.023076,83.790787 128.070731,81.5887304 C129.045378,79.540129 129.67051,77.3151338 129.949506,74.9147344 L129.949506,74.9147344 L130.103204,73.440367 L140.132807,73.440367 C139.125291,82.2992808 136.03919,89.1359875 130.931169,93.9823255 C126.014578,98.6470398 119.699147,101 111.967177,101 C106.811504,101 102.248151,100.041548 98.2731785,98.1406849 C94.2885243,96.2351915 90.9399982,93.6414986 88.2253425,90.3624751 C85.5235057,87.0989355 83.4726592,83.2853927 82.0780427,78.9189298 C80.6938901,74.5852292 80,69.9671883 80,65.0642202 C80,60.1612521 80.6938901,55.5432112 82.0780427,51.2095105 C83.4726592,46.8430477 85.5235057,43.0295049 88.2253425,39.7659652 C90.9378254,36.4895662 94.2835898,33.8757119 98.265066,31.9274598 C102.242393,29.9812378 106.808408,29 111.967177,29 L111.967177,29 Z M508.021191,27 C513.713097,27 518.874745,27.9749573 523.508281,29.9148342 C528.166036,31.8648508 532.152432,34.6892301 535.468468,38.3865712 C538.767874,42.0653707 541.354133,46.560664 543.218164,51.8779825 C545.086844,57.2085613 546.017473,63.2398058 545.999752,69.9736255 L545.993072,70.7850563 L488.673071,70.7850563 C489.538952,74.744241 491.598876,78.071723 494.848248,80.7700863 C498.446509,83.7581765 503.288644,85.2190379 509.347124,85.2190379 C514.156263,85.2190379 518.337051,84.4776118 521.885393,82.976654 C525.611555,81.400478 528.799902,79.2868142 531.446995,76.6305308 L531.860459,76.2066076 L540.855319,88.6011394 C536.136734,93.4800101 531.123568,96.7785964 525.828238,98.5181171 C520.797556,100.170701 515.304192,101 509.347124,101 C503.91367,101 498.858235,100.091314 494.179737,98.2794958 C489.485985,96.4617698 485.424552,93.9225648 481.992784,90.6660173 C478.556255,87.4049513 475.863916,83.5252852 473.918155,79.0253377 C471.976047,74.5338373 471,69.5384047 471,64.0368475 C471,58.6953768 471.897478,53.7705335 473.685433,49.2609133 C475.479807,44.7351042 478.008632,40.8172682 481.268655,37.5052634 C484.53012,34.1917932 488.435106,31.6097954 492.986295,29.763233 C497.51943,27.9239962 502.530458,27 508.021191,27 Z M508.021191,42.7072671 C503.421839,42.7072671 499.290634,43.9839933 495.629433,46.5432523 C492.376131,48.8173803 490.28636,51.7585535 489.369363,55.3725691 L489.369363,55.3725691 L526.52638,55.3725691 L526.420194,54.9736573 C525.458783,51.5403962 523.42804,48.7304211 520.334319,46.5397582 C516.722468,43.9822069 512.617261,42.7072671 508.021191,42.7072671 Z M293.322196,29 C296.775527,29 299.984895,29.4435186 302.951014,30.3259186 C305.962072,31.2216878 308.612345,32.6121439 310.904107,34.4930644 C313.20561,36.3819795 315.034886,38.7195334 316.388837,41.5081911 C317.854762,44.5274753 318.636764,48.1298076 318.713494,52.3211009 L318.713494,52.3211009 L308.572439,52.3211009 C308.602506,49.5929435 308.128714,47.2472881 307.124702,45.2915676 C306.250755,43.5892024 305.080337,42.1823224 303.610274,41.0736225 C302.12009,39.9497478 300.407367,39.1293593 298.474496,38.607652 C296.494196,38.0731433 294.389995,37.8073394 292.162291,37.8073394 C290.425228,37.8073394 288.66755,37.9932949 286.88916,38.3642511 C285.150439,38.726933 283.552665,39.3301188 282.096864,40.1764504 C280.690012,40.9943252 279.555417,42.064187 278.695527,43.3885916 C277.845825,44.6973057 277.439141,46.3179509 277.439141,48.2385321 C277.439141,49.8009794 277.81551,51.1288191 278.601355,52.2103458 C279.429178,53.3496461 280.475126,54.3105669 281.736339,55.0961467 C283.048179,55.9132604 284.483332,56.5866169 286.04108,57.1177197 C287.639988,57.6628562 289.112912,58.1037744 290.460045,58.4398075 L290.460045,58.4398075 L301.238438,60.8694935 C303.619882,61.2241116 305.979554,61.8624114 308.317162,62.7854866 C310.695829,63.7247745 312.804244,64.9562431 314.644208,66.4768823 C316.506525,68.0159955 318.030028,69.9159332 319.211155,72.1796123 C320.396283,74.4509601 321,77.129146 321,80.2201835 C321,84.0323954 320.12013,87.2711601 318.391187,89.9464502 C316.67784,92.597608 314.490865,94.7542441 311.830707,96.4168103 C309.201498,98.0600341 306.238916,99.23939 302.940957,99.9500393 C299.690782,100.650392 296.484489,101 293.322196,101 C285.247951,101 278.717073,99.0728176 273.708336,95.273811 C268.444798,91.2815438 265.47676,84.8000044 264.924818,75.7522936 L264.924818,75.7522936 L275.075773,75.7522936 C275.224783,81.3605919 277.077587,85.5768071 280.718317,88.351435 C284.207081,91.0102478 288.541813,92.3211009 293.708831,92.3211009 C295.620681,92.3211009 297.594763,92.1131577 299.631241,91.6989621 C301.630001,91.292438 303.486343,90.6021466 305.199644,89.6264438 C306.876507,88.6714925 308.255785,87.4597057 309.333977,85.9872035 C310.376626,84.5632433 310.880668,82.8080469 310.880668,80.733945 C310.880668,78.9770912 310.534277,77.4994615 309.804517,76.3128462 C309.064264,75.1091676 308.068982,74.101618 306.822577,73.2864442 C305.513871,72.4305243 304.020323,71.7190763 302.343711,71.1485201 C300.614804,70.5601677 298.864844,70.0557434 297.093826,69.6352616 L297.093826,69.6352616 L286.645617,67.3213266 C283.930636,66.6237375 281.435168,65.8163185 279.158851,64.9001603 C276.830056,63.9628808 274.793731,62.8003437 273.047312,61.416881 C271.253972,59.996249 269.851318,58.2549464 268.839677,56.1927111 C267.836178,54.1470738 267.319809,51.6267113 267.319809,48.6238532 C267.319809,45.0753927 268.131583,42.0326285 269.727993,39.4870521 C271.316011,36.9548562 273.380673,34.9203375 275.921453,33.3829626 C278.414684,31.8743588 281.196638,30.7631829 284.268872,30.0532016 C287.308674,29.350715 290.326488,29 293.322196,29 L293.322196,29 Z M233.866232,29 C239.360066,29 244.05131,30.1233586 247.948209,32.3419817 C251.845432,34.560789 255.010624,37.4686321 257.446238,41.0628784 C259.862985,44.6292829 261.601841,48.7228604 262.65652,53.3464098 C263.70689,57.9510667 264.141392,62.6218463 263.959905,67.3587601 L263.918657,68.2477064 L213.091761,68.2477064 C213.173765,70.767912 213.564294,73.3690314 214.261023,76.0513461 C215.040471,79.0521211 216.29005,81.7455024 218.013173,84.1298635 C219.728457,86.5033772 221.894007,88.4663883 224.507577,90.0213324 C227.100451,91.5639635 230.222868,92.3211009 233.866232,92.3211009 C239.461595,92.3211009 243.861543,90.894498 247.030788,87.9631274 C250.276063,84.9614335 252.495462,80.9383399 253.714281,75.9096121 L253.841042,75.3669725 L263.94395,75.3669725 C262.25372,83.7312418 258.908021,90.1250333 253.95425,94.5785225 C249.225058,98.8301133 242.54235,101 233.866232,101 C228.483704,101 223.832608,100.038901 219.907365,98.1386025 C215.95379,96.2245869 212.735449,93.5960559 210.24811,90.2580639 C207.783498,86.9505716 205.953959,83.1151755 204.765548,78.7488618 C203.589345,74.427396 203,69.8659635 203,65.0642202 C203,60.6071025 203.588787,56.237391 204.76623,51.9550679 C205.953075,47.6385533 207.779215,43.7855972 210.240668,40.3942566 C212.721689,36.9759579 215.931934,34.2211808 219.875398,32.1344678 C223.809629,30.0526401 228.471102,29 233.866232,29 Z M233.866232,37.8073394 C230.708239,37.8073394 227.911841,38.4279863 225.481478,39.6862125 C223.040793,40.9497819 220.965597,42.6202933 219.257041,44.6991623 C217.530409,46.8000262 216.155211,49.231457 215.127543,51.9911731 C214.220606,54.4266778 213.582522,56.9097198 213.213576,59.440367 L213.213576,59.440367 L253.842367,59.440367 L253.794939,58.7903105 C253.59517,56.4141761 253.11084,54.1195133 252.341182,51.906465 C251.398692,49.1964592 250.068445,46.7934194 248.347242,44.6991623 C246.638686,42.6202933 244.56349,40.9497819 242.122805,39.6862125 C239.694402,38.4290009 236.941013,37.8073394 233.866232,37.8073394 Z M171.967177,29 C179.234674,29 185.378856,30.9637855 190.41097,34.8607378 C195.703412,38.9592916 198.795566,45.2334025 199.606758,53.733945 L199.606758,53.733945 L189.684223,53.733945 C188.67626,48.6151649 186.700348,44.6184526 183.714472,41.7693549 C180.917497,39.1005046 176.989,37.8073394 171.967177,37.8073394 C168.348515,37.8073394 165.16868,38.5711155 162.43319,40.1181484 C159.68516,41.6722735 157.401456,43.7167766 155.582858,46.2525219 C153.74367,48.8169775 152.356122,51.733881 151.416165,55.0012386 C150.46917,58.2930628 149.995624,61.6473854 149.995624,65.0642202 C149.995624,68.481055 150.46917,71.8353775 151.416165,75.1272017 C152.356122,78.3945594 153.74367,81.3114629 155.582858,83.8759185 C157.401456,86.4116637 159.68516,88.4561668 162.43319,90.010292 C165.16868,91.5573249 168.348515,92.3211009 171.967177,92.3211009 C174.282358,92.3211009 176.478072,91.8777608 178.553882,90.9889759 C180.637328,90.0969215 182.480521,88.8603987 184.083193,87.2790086 C185.695154,85.6884528 187.023076,83.790787 188.070731,81.5887304 C189.242063,79.1267185 189.908486,76.4100185 190.076165,73.440367 L190.076165,73.440367 L200.132807,73.440367 C199.125291,82.2992808 196.03919,89.1359875 190.931169,93.9823255 C186.014578,98.6470398 179.699147,101 171.967177,101 C166.811504,101 162.248151,100.041548 158.273179,98.1406849 C154.288524,96.2351915 150.939998,93.6414986 148.225343,90.3624751 C145.523506,87.0989355 143.472659,83.2853927 142.078043,78.9189298 C140.69389,74.5852292 140,69.9671883 140,65.0642202 C140,60.1612521 140.69389,55.5432112 142.078043,51.2095105 C143.472659,46.8430477 145.523506,43.0295049 148.225343,39.7659652 C150.937825,36.4895662 154.28359,33.8757119 158.265066,31.9274598 C162.242393,29.9812378 166.808408,29 171.967177,29 L171.967177,29 Z M646.140288,1 L646.140288,41.2180494 C647.792077,37.6312851 650.054707,34.6714331 652.919044,32.3323481 C657.186083,28.8477839 662.439649,27.0896552 668.691847,27.0896552 C675.997433,27.0896552 681.702148,29.5295454 685.834832,34.3515494 C689.905377,39.1010501 692,46.3855741 692,56.2605364 L692,56.2605364 L692,100 L674.859712,100 L674.859712,56.2605364 C674.859712,51.2271171 674.015542,47.6823027 672.139736,45.7295341 C670.306183,43.8207525 667.629205,42.9149425 664.157074,42.9149425 C658.871225,42.9149425 654.567124,45.0944346 651.236482,49.4362392 C647.813948,53.8978338 646.140288,60.0726281 646.140288,67.9302682 L646.140288,67.9302682 L646.140288,100 L629,100 L629,1 L646.140288,1 Z M50.5384626,6 L87.4672611,100 L75.8952725,100 L64.6651014,71.394958 L24.0796054,71.394958 L12.9785168,100 L1.5192874,100 L39.3713058,6 L50.5384626,6 Z M44.547933,18.5479332 L27.5710373,61.9215686 L60.931231,61.9215686 L44.547933,18.5479332 Z M395,31.512605 L395,100 L385,100 L385,31.512605 L395,31.512605 Z M472,1 L472,38.3808429 L456.473118,38.3808429 L456.473118,16.8996169 L445.604301,16.8996169 L445.604301,84.1747126 L460.739785,84.1747126 L460.739785,100 L413.406452,100 L413.406452,84.1747126 L428.468817,84.1747126 L428.468817,16.8996169 L417.453763,16.8996169 L417.453763,38.3808429 L402,38.3808429 L402,1 L472,1 Z M385,6 L395,6 L395,21.0140056 L385,21.0140056 L385,6 Z" id="TypeLogo_White_HC" stroke="#20344D" stroke-width="2" fill="#FFFFFF" fill-rule="nonzero"></path>
    </g>
</svg>